# xmcd CD database file
#
# Track frame offsets:
#	150
#	10280
#	33650
#	46375
#	50445
#	64240
#	80615
#	95057
#	109365
#	122072
#	138032
#	149272
#	171847
#	182715
#	206332
#	227282
#
# Disc length: 3193 seconds
#
# Revision: 0
# Processed by: cddbd v1.4PL0 Copyright (c) Steve Scherf et al.
# Submitted via: CDex 1.50beta10
#
DISCID=de0c7710
DTITLE=CASSIBER with SINODA MASAMI - CASSIBER LIVE IN TOKYO (disk 1)
DYEAR=1992
DGENRE=Jazz
TTITLE0=A Screaming Comes Across The Sky
TTITLE1=They Have Begun To Move
TTITLE2=They Go In Under Archways
TTITLE3=Philosophy
TTITLE4=Gut
TTITLE5=Prisoner Chorus
TTITLE6=Todo Dia
TTITLE7=Come On ! Start The Show !
TTITLE8=It's Never Quiet
TTITLE9=O Cure Me
TTITLE10=Our Colorful Culture
TTITLE11=Prometheus
TTITLE12=Remember
TTITLE13=I Was Old
TTITLE14=Orpheus Mirror
TTITLE15=I tried To Reach You
EXTD=YEAR: 1992
EXTT0=
EXTT1=
EXTT2=
EXTT3=
EXTT4=
EXTT5=
EXTT6=
EXTT7=
EXTT8=
EXTT9=
EXTT10=
EXTT11=
EXTT12=
EXTT13=
EXTT14=
EXTT15=
PLAYORDER=
